PathFileType	4	(X/Y/Z)	 s06c0201.trc
DataRate	CameraRate	NumFrames	NumMarkers	Units	OrigDataRate	OrigDataStartFrame	OrigNumFrames
200	200	4	49	mm	200	751	2000
Frame#	Time	racr			lacr			c7			jug			rlel			rdr			llel			ldr			s2			lic			ric			lasi			rasi			rpsi			lpsi			rgt			lgt			rth1			rth2			rth3			rth4			rlfc			rmfc			rsh1			rsh2			rsh3			rsh4			rlmal			rmmal			rcal			rtoe			rmt5			lth1			lth2			lth4			lth3			llfc			lmfc			llmal			lcal			lmt5			lsh1			lsh2			lsh3			lsh4			ltoe			SBIKE			LBIKE			RBIKE			
		X1	Y1	Z1	X2	Y2	Z2	X3	Y3	Z3	X4	Y4	Z4	X5	Y5	Z5	X6	Y6	Z6	X7	Y7	Z7	X8	Y8	Z8	X9	Y9	Z9	X10	Y10	Z10	X11	Y11	Z11	X12	Y12	Z12	X13	Y13	Z13	X14	Y14	Z14	X15	Y15	Z15	X16	Y16	Z16	X17	Y17	Z17	X18	Y18	Z18	X19	Y19	Z19	X20	Y20	Z20	X21	Y21	Z21	X22	Y22	Z22	X23	Y23	Z23	X24	Y24	Z24	X25	Y25	Z25	X26	Y26	Z26	X27	Y27	Z27	X28	Y28	Z28	X29	Y29	Z29	X30	Y30	Z30	X31	Y31	Z31	X32	Y32	Z32	X33	Y33	Z33	X34	Y34	Z34	X35	Y35	Z35	X36	Y36	Z36	X37	Y37	Z37	X38	Y38	Z38	X39	Y39	Z39	X40	Y40	Z40	X41	Y41	Z41	X42	Y42	Z42	X43	Y43	Z43	X44	Y44	Z44	X45	Y45	Z45	X46	Y46	Z46	X47	Y47	Z47	X48	Y48	Z48	X49	Y49	Z49	
751	3.7550	526.119674	1269.022012	-89.881851	536.579326	1239.450636	-391.934227	522.763461	1336.784050	-242.177745	513.241326	1171.056347	-231.419144	484.941940	1040.142509	49.351242	665.239187	941.715241	-45.683349	459.620190	1002.902221	-507.521724	654.864824	933.400218	-415.570182	-21.840302	1147.631124	-223.271377	134.520734	1118.387772	-400.795894	121.294316	1136.914262	-66.537407	162.801872	1070.252628	-359.641240	148.470762	1093.343836	-98.803821	12.592197	1194.425376	-202.794983	9.195124	1183.253580	-262.349880	105.412716	1081.128238	-24.142313	105.954478	1031.675033	-419.591276	211.275363	1031.370819	-17.360694	300.069607	1013.481787	-23.129986	364.930713	956.740254	-20.016944	312.020360	1042.011466	-45.919004	430.503503	873.012844	-44.151164	418.672719	848.629174	-155.532872	351.306542	776.697390	-24.268184	301.079825	710.111597	-47.470240	222.926545	669.624044	-50.295378	316.869456	697.274911	-82.747772	152.036307	624.504366	-56.065517	183.609909	608.408357	-145.380260	85.678141	641.956999	-105.971622	268.853710	434.796314	-101.641534	185.564133	490.158895	-34.365008	133.078662	905.901181	-437.957886	187.949337	837.778323	-436.795912	221.350980	852.668040	-431.881920	201.340619	749.990989	-428.898014	227.852907	632.778816	-409.654931	242.948393	618.184862	-294.430000	180.380946	265.938412	-377.182573	113.814876	254.557264	-326.926239	287.653332	165.787761	-407.387228	211.315984	523.965791	-424.708902	223.090765	440.420783	-405.025673	190.596005	359.269459	-399.315664	253.896501	441.806097	-380.279636	374.426351	149.192491	-351.742221	-203.552764	870.650343	-213.157898	-48.620022	84.050267	-419.384487	-50.131757	80.642086	-21.811469	
752	3.7600	525.832832	1268.196890	-88.824337	536.890565	1240.625296	-390.838125	523.171163	1336.909736	-240.660323	513.200186	1170.736196	-230.380591	484.629848	1039.189326	49.956278	664.798751	941.831242	-45.673597	460.961193	1003.983676	-507.706372	656.199261	932.756306	-416.197865	-22.546370	1148.678294	-222.976101	135.135358	1119.088733	-401.449190	120.423083	1136.971033	-67.460683	162.663175	1070.382356	-360.652692	147.668942	1093.358244	-99.663650	12.321419	1194.700543	-203.844744	9.123928	1183.551969	-263.371234	105.606857	1082.586242	-25.631187	105.307187	1031.537530	-420.723012	210.845228	1034.214255	-19.115334	300.161432	1017.338379	-24.538864	365.680115	961.770940	-21.206888	311.600942	1045.765096	-47.643849	432.755542	878.271939	-45.538601	421.039560	855.444742	-158.465813	355.083158	781.657942	-25.274758	305.440912	714.582775	-48.272848	227.762852	673.191904	-50.618314	321.204928	701.782753	-83.502350	157.199424	626.990080	-56.262965	188.663689	611.510055	-145.944607	90.018277	642.985071	-106.368455	277.979436	439.999589	-101.740760	193.568020	493.499013	-34.516843	131.486277	905.175320	-439.350561	185.531796	836.829794	-438.727827	219.352602	851.298272	-433.541525	198.533096	748.708037	-430.486845	224.183864	631.540073	-410.459654	240.074932	617.136253	-295.378523	174.579534	265.505760	-377.208488	108.107002	255.463167	-326.789476	279.923474	162.756357	-407.456139	207.006028	522.948500	-425.572399	218.343395	439.384846	-405.697209	185.361756	358.398596	-399.632622	249.142790	440.753606	-381.303883	366.330950	144.313009	-351.771496	-203.564687	870.679058	-213.187761	-48.615415	84.075543	-419.394719	-50.127240	80.706645	-21.805510	
753	3.7650	525.621051	1267.178446	-87.723588	537.108852	1241.669681	-389.736719	523.549125	1336.887569	-239.036911	513.166083	1170.383228	-229.454623	484.267083	1038.220898	50.685843	664.383986	941.917174	-45.738271	462.456159	1004.861035	-507.767752	657.611909	932.083035	-416.673000	-22.058178	1148.272320	-225.660171	135.676530	1119.631810	-402.064460	119.484734	1136.835878	-68.342184	162.387544	1070.395722	-361.612256	146.245763	1092.701299	-100.292414	12.059191	1194.926227	-204.804713	9.121381	1183.839674	-264.384827	105.121231	1084.282966	-26.872244	104.652446	1031.476468	-421.917452	210.469166	1036.766285	-20.578938	300.115364	1021.073925	-25.817913	365.521156	966.637563	-21.167431	311.071198	1049.307541	-49.299040	434.669457	884.194388	-47.424510	423.126980	860.302505	-159.581866	358.893970	786.174301	-26.500102	309.698234	718.564629	-49.241878	232.542412	676.266006	-51.071029	325.512999	705.738696	-84.366539	162.217806	628.957050	-56.664459	193.959098	613.995326	-146.320388	94.559934	643.056379	-106.865832	287.603626	445.006067	-101.480631	201.529689	496.382392	-34.586711	130.007313	904.628592	-440.617908	183.638623	835.934880	-440.437207	217.660970	850.187668	-435.188416	196.176804	747.745830	-432.104747	221.182568	630.548831	-411.583008	237.407235	616.239195	-296.324231	168.738660	265.386159	-377.300968	102.236910	256.598513	-326.683005	271.987762	160.197916	-407.386430	203.195895	522.205051	-426.390221	213.877146	438.662807	-406.258401	180.300997	357.918616	-399.856093	244.770398	439.782703	-382.070656	358.008255	139.929318	-351.795137	-203.581204	870.719573	-213.245228	-48.611613	84.111781	-419.386392	-50.176564	80.790947	-21.811963	
754	3.7700	525.329302	1266.038534	-86.488915	537.421471	1242.591479	-388.509067	523.857843	1336.635764	-237.327764	513.026875	1169.775796	-228.511187	483.744216	1037.297412	51.572726	664.045210	941.836926	-45.864630	464.012204	1005.667189	-507.733995	658.979595	931.754226	-417.127456	-22.369124	1148.426952	-226.821652	136.114785	1119.977029	-402.578592	118.576501	1136.710405	-69.183857	162.055908	1070.267131	-362.566601	144.721464	1091.935306	-100.804368	11.823378	1195.111786	-205.793240	9.050668	1184.006643	-265.350577	104.418649	1085.942642	-27.975922	103.930535	1031.404118	-423.049579	209.625369	1038.568466	-22.409987	299.922071	1024.434260	-27.246322	365.375457	971.506005	-21.194878	310.525186	1052.600748	-51.002355	436.122003	889.909939	-47.695099	424.859434	865.100711	-160.946445	362.603723	790.077963	-27.767082	313.888373	721.925147	-50.342256	237.326289	678.727052	-51.717797	329.883572	709.025262	-85.844746	167.036163	630.129228	-57.245241	199.685251	615.772577	-146.829707	99.360975	642.667936	-107.800693	296.982011	449.437270	-101.000856	209.504215	498.811711	-34.595473	128.606514	904.154771	-441.963721	182.014011	835.181667	-442.103121	216.064930	849.360052	-436.735953	194.210957	747.006198	-433.676058	218.715848	629.885443	-412.588431	235.373744	615.715798	-297.126108	162.779565	265.561943	-377.401327	96.204728	258.093959	-326.580866	263.839611	158.194672	-407.338133	199.915098	521.765712	-427.163105	209.771886	438.147633	-406.698476	175.447826	357.764623	-400.080748	240.769620	439.036635	-382.560712	349.504975	136.070803	-351.757729	-203.560624	870.766160	-213.307108	-48.596694	84.112769	-419.368487	-50.163488	80.835073	-21.797396	
